<svg xmlns="http://www.w3.org/2000/svg" width="388" height="258.628"><defs><clipPath id="a"><ellipse cx="21.075" cy="19.133" rx="21.075" ry="19.133" transform="rotate(-42.365 36.647 14.201)" fill="none"/></clipPath></defs><g data-name="Group 3169"><path data-name="Path 7392" d="M58.012 257.7H.312a.312.312 0 0 1-.312-.312v-22.443a.312.312 0 0 1 .624 0v22.131h57.388a.312.312 0 1 1 0 .624z"/><g data-name="Employee assessment"><path data-name="Path 7306" d="M57.443 84.106H.317A.317.317 0 0 1 0 83.788l.056-72.973a.317.317 0 0 1 .317-.317.317.317 0 0 1 .317.318L.634 83.472h56.808a.318.318 0 0 1 0 .635z"/><g data-name="Group 3117"><g data-name="Group 3115"><g data-name="Group 3110"><g data-name="Group 3109"><path data-name="Path 7307" d="M37.099 62.087c.337-.194 13.03-22.017 10.667-49.1a5.343 5.343 0 0 0-5.706-4.9l-.138.012a5.262 5.262 0 0 0-4.514 3.678c-1.6 5.147-4.419 18.563-5.06 50.312z" fill="#fff"/><path data-name="Path 7308" d="M37.099 62.403h-4.751a.318.318 0 0 1-.317-.324c.641-31.728 3.455-45.2 5.075-50.4a5.565 5.565 0 0 1 4.787-3.9l.142-.013a5.664 5.664 0 0 1 6.049 5.192 88.441 88.441 0 0 1-4.336 34.759c-2.835 8.608-6.166 14.456-6.489 14.642a.318.318 0 0 1-.16.044zm-4.427-.635h4.273a71.92 71.92 0 0 0 6.316-14.605 87.727 87.727 0 0 0 4.19-34.149 5.026 5.026 0 0 0-5.364-4.615l-.133.012a4.932 4.932 0 0 0-4.242 3.457c-1.605 5.155-4.388 18.484-5.04 49.902z"/></g><path data-name="Path 7309" d="M36.448 56.2a.318.318 0 0 1-.309-.391 212.272 212.272 0 0 0 5.388-35.415.317.317 0 1 1 .633.042 212.946 212.946 0 0 1-5.4 35.521.318.318 0 0 1-.312.243z"/></g><g data-name="Group 3112"><g data-name="Group 3111"><path data-name="Path 7310" d="M34.746 62.086h-8.793s-2.029-34.442-2.706-47.321S28.037-.174 30.97.402c2.05.402 10.874 3.108 3.776 61.684z"/><path data-name="Path 7311" d="M34.745 62.4h-8.793a.317.317 0 0 1-.317-.3c-.02-.344-2.037-34.591-2.706-47.323-.43-8.189 1.64-11.783 3.452-13.356A5.461 5.461 0 0 1 31.03.085c7.273 1.427 8.7 23.458 4.03 62.034a.317.317 0 0 1-.315.281zm-8.494-.635h8.213c2.972-24.629 3.481-42.218 1.512-52.279-1.051-5.37-2.756-8.323-5.068-8.776a4.829 4.829 0 0 0-4.111 1.192c-1.705 1.48-3.651 4.91-3.234 12.843.635 12.097 2.487 43.608 2.688 47.024z"/></g></g><g data-name="Group 3114"><g data-name="Group 3113"><path data-name="Path 7312" d="M24.734 62.086h-7.135a145.469 145.469 0 0 1-6.418-18.518c-2.613-9.823-3.678-20.984 0-21.525s9.643 3.876 13.553 40.043z" fill="#fff"/><path data-name="Path 7313" d="M24.731 62.404h-7.135a.317.317 0 0 1-.291-.19 147.131 147.131 0 0 1-6.435-18.563c-2.154-8.1-3.4-17.682-1.321-20.835a2.267 2.267 0 0 1 1.582-1.086 4.255 4.255 0 0 1 3.3.959c4.6 3.562 8.175 16.806 10.614 39.363a.317.317 0 0 1-.316.351zm-6.926-.634h6.573c-2.418-22.165-5.894-35.144-10.333-38.578a3.593 3.593 0 0 0-2.821-.834 1.64 1.64 0 0 0-1.144.806c-1.958 2.973-.645 12.619 1.4 20.323a146.866 146.866 0 0 0 6.329 18.282z"/></g><path data-name="Path 7314" d="M21.284 61.439a.317.317 0 0 1-.306-.234l-6.862-25.271a.317.317 0 1 1 .612-.166l6.862 25.271a.318.318 0 0 1-.306.4z"/></g><path data-name="Path 7315" d="M31.173 61.727a.317.317 0 0 1-.317-.316l-.265-50.594a.317.317 0 0 1 .316-.319.317.317 0 0 1 .317.316l.265 50.594a.317.317 0 0 1-.316.319z" fill="#fff"/></g><g data-name="Group 3116"><path data-name="Path 7316" d="M15.286 59.342h25.025a2.384 2.384 0 0 1 2.354 2.764L39.172 83.78H16.424l-3.492-21.677a2.384 2.384 0 0 1 2.354-2.761z" fill="#abb2e7"/><path data-name="Path 7317" d="M39.173 84.1H16.424a.317.317 0 0 1-.313-.267l-3.492-21.677a2.7 2.7 0 0 1 2.668-3.132h25.021a2.7 2.7 0 0 1 2.667 3.132l-3.492 21.677a.317.317 0 0 1-.31.267zm-22.479-.635h22.208l3.449-21.41a2.067 2.067 0 0 0-2.041-2.4H15.287a2.067 2.067 0 0 0-2.041 2.4z"/></g></g><g data-name="Group 3135"><g data-name="Group 3119"><g data-name="Group 3118"><path data-name="Path 7318" d="M362.971 222.864H196.264a3.172 3.172 0 0 1-3.257-3.524l20.739-209.311a4.027 4.027 0 0 1 3.955-3.524h166.706a3.172 3.172 0 0 1 3.257 3.524L366.925 219.34a4.027 4.027 0 0 1-3.954 3.524z" fill="#fff"/><path data-name="Path 7319" d="M362.972 223.182H196.264a3.6 3.6 0 0 1-2.677-1.128 3.456 3.456 0 0 1-.9-2.736L213.426 9.993a4.353 4.353 0 0 1 4.271-3.8h166.706a3.6 3.6 0 0 1 2.677 1.128 3.456 3.456 0 0 1 .9 2.736l-20.738 209.32a4.353 4.353 0 0 1-4.27 3.805zM217.702 6.808a3.711 3.711 0 0 0-3.64 3.244l-20.739 209.325a2.855 2.855 0 0 0 .734 2.26 2.966 2.966 0 0 0 2.207.925h166.708a3.711 3.711 0 0 0 3.64-3.244L387.351 9.993a2.855 2.855 0 0 0-.734-2.26 2.967 2.967 0 0 0-2.207-.925z"/></g><path data-name="Path 7320" d="M335.246 18.95h-70.79a10.466 10.466 0 0 1-10.6-11.732l.668-6.9h94.255l-.668 6.9a13.214 13.214 0 0 1-12.865 11.732z" fill="#3f53d9"/></g><g data-name="Group 3127"><g data-name="Group 3120"><path data-name="Path 7321" d="M245.032 103.646h-21.343a.317.317 0 0 1-.316-.348l2.067-21.343a.317.317 0 0 1 .316-.287h20.12a.318.318 0 1 1 0 .635h-19.832l-2.005 20.708h20.7l1.484-15.322a.317.317 0 1 1 .631.061l-1.511 15.609a.317.317 0 0 1-.311.287z"/><path data-name="Path 7322" d="M234.716 99.983h-.021a.318.318 0 0 1-.249-.15l-7.228-11.707a.317.317 0 1 1 .54-.333l6.994 11.327 16.258-19.962a.317.317 0 1 1 .492.4l-16.54 20.308a.317.317 0 0 1-.246.117z" fill="#3f53d9" stroke="#3f53d9" stroke-width=".5"/></g><g data-name="Group 3121"><path data-name="Path 7323" d="M241.6 139.085h-21.343a.317.317 0 0 1-.316-.348l2.067-21.343a.317.317 0 0 1 .316-.287h20.12a.317.317 0 1 1 0 .634h-19.832l-2.005 20.708h20.705l1.484-15.322a.317.317 0 1 1 .631.061l-1.511 15.609a.317.317 0 0 1-.316.288z"/><path data-name="Path 7324" d="M231.284 135.423h-.021a.318.318 0 0 1-.249-.15l-7.228-11.707a.317.317 0 1 1 .54-.333l6.994 11.327 16.258-19.962a.317.317 0 1 1 .492.4l-16.54 20.307a.317.317 0 0 1-.246.118z" fill="#3f53d9" stroke="#3f53d9" stroke-width=".5"/></g><g data-name="Group 3122"><path data-name="Path 7325" d="M238.17 174.525h-21.343a.317.317 0 0 1-.316-.348l2.066-21.343a.318.318 0 0 1 .316-.287h20.121a.318.318 0 0 1 0 .635h-19.836l-2 20.707h20.7l1.484-15.322a.317.317 0 1 1 .631.061l-1.511 15.609a.317.317 0 0 1-.312.288z"/><path data-name="Path 7326" d="M227.852 170.862h-.021a.317.317 0 0 1-.249-.15l-7.228-11.707a.317.317 0 1 1 .54-.333l6.994 11.327 16.258-19.961a.317.317 0 1 1 .492.4l-16.54 20.307a.317.317 0 0 1-.246.117z" fill="#3f53d9" stroke="#3f53d9" stroke-width=".5"/></g><path data-name="Path 7327" d="M234.726 210.087h-21.343a.317.317 0 0 1-.316-.348l2.066-21.343a.318.318 0 0 1 .316-.287h21.343a.317.317 0 0 1 .316.348l-2.066 21.343a.318.318 0 0 1-.316.287zm-20.993-.635h20.7l2.005-20.708h-20.705z"/><g data-name="Group 3123"><path data-name="Path 7328" d="M362.646 86.193h-33.151a.318.318 0 1 1 0-.635h33.151a.318.318 0 0 1 0 .635z"/><path data-name="Path 7329" d="M323.107 86.193h-31.9a.318.318 0 0 1 0-.635h31.9a.318.318 0 1 1 0 .635z"/><path data-name="Path 7330" d="M284.817 86.193h-28.718a.318.318 0 0 1 0-.635h28.718a.318.318 0 0 1 0 .635z"/><path data-name="Path 7331" d="M355.57 93.304h-12.614a.318.318 0 0 1 0-.635h12.614a.318.318 0 0 1 0 .635z"/><path data-name="Path 7332" d="M336.57 93.304h-54.655a.318.318 0 0 1 0-.635h54.655a.318.318 0 1 1 0 .635z"/><path data-name="Path 7333" d="M275.528 93.304h-20.116a.318.318 0 0 1 0-.635h20.116a.318.318 0 1 1 0 .635z"/><path data-name="Path 7334" d="M361.269 100.416h-53.13a.318.318 0 1 1 0-.635h53.129a.318.318 0 1 1 0 .635z"/><path data-name="Path 7335" d="M301.753 100.416h-47.031a.318.318 0 1 1 0-.635h47.031a.318.318 0 0 1 0 .635z"/></g><g data-name="Group 3124"><path data-name="Path 7336" d="M352.516 192.304h-33.152a.318.318 0 0 1 0-.635h33.152a.318.318 0 1 1 0 .635z"/><path data-name="Path 7337" d="M312.977 192.304h-31.9a.318.318 0 1 1 0-.635h31.9a.318.318 0 1 1 0 .635z"/><path data-name="Path 7338" d="M274.687 192.304h-28.718a.318.318 0 1 1 0-.635h28.718a.318.318 0 1 1 0 .635z"/><path data-name="Path 7339" d="M345.44 199.415h-12.613a.318.318 0 0 1 0-.635h12.613a.318.318 0 0 1 0 .635z"/><path data-name="Path 7340" d="M326.44 199.415h-29.413a.318.318 0 1 1 0-.635h29.413a.318.318 0 1 1 0 .635z"/><path data-name="Path 7341" d="M281.429 199.415h-36.147a.318.318 0 1 1 0-.635h36.147a.318.318 0 0 1 0 .635z"/><path data-name="Path 7342" d="M351.139 206.527h-53.126a.318.318 0 1 1 0-.635h53.129a.318.318 0 1 1 0 .635z"/><path data-name="Path 7343" d="M291.623 206.527h-47.031a.318.318 0 0 1 0-.635h47.031a.318.318 0 0 1 0 .635z"/></g><g data-name="Group 3125"><path data-name="Path 7344" d="M355.921 157.123h-33.15a.318.318 0 1 1 0-.635h33.15a.318.318 0 0 1 0 .635z"/><path data-name="Path 7345" d="M316.381 157.123h-31.9a.318.318 0 1 1 0-.635h31.9a.318.318 0 0 1 0 .635z"/><path data-name="Path 7346" d="M278.093 157.123h-28.718a.318.318 0 1 1 0-.635h28.718a.318.318 0 1 1 0 .635z"/><path data-name="Path 7347" d="M355.234 164.238h-80.043a.318.318 0 0 1 0-.635h80.043a.318.318 0 0 1 0 .635z"/><path data-name="Path 7348" d="M268.803 164.238h-20.116a.318.318 0 0 1 0-.635h20.116a.318.318 0 1 1 0 .635z"/><path data-name="Path 7349" d="M311.816 171.346h-63.815a.318.318 0 0 1 0-.635h63.817a.318.318 0 1 1 0 .635z"/></g><g data-name="Group 3126"><path data-name="Path 7350" d="M359.203 121.75h-53.129a.318.318 0 1 1 0-.635h53.129a.318.318 0 1 1 0 .635z"/><path data-name="Path 7351" d="M299.687 121.75h-47.03a.318.318 0 1 1 0-.635h47.03a.318.318 0 0 1 0 .635z"/><path data-name="Path 7352" d="M358.514 128.864h-42.585a.317.317 0 0 1 0-.634h42.585a.317.317 0 0 1 0 .634z"/><path data-name="Path 7353" d="M309.546 128.864h-28.573a.317.317 0 1 1 0-.634h28.573a.317.317 0 0 1 0 .634z"/><path data-name="Path 7354" d="M274.582 128.864h-22.614a.317.317 0 0 1 0-.634h22.614a.317.317 0 0 1 0 .634z"/><path data-name="Path 7355" d="M319.501 135.973h-24.792a.318.318 0 0 1 0-.635h24.792a.318.318 0 0 1 0 .635z"/><path data-name="Path 7356" d="M288.321 135.973h-37.042a.318.318 0 0 1 0-.635h37.042a.318.318 0 1 1 0 .635z"/></g></g><path data-name="Path 7357" d="M359.632 48.81h-77.75a3.189 3.189 0 0 1-3.22-3.565 4.029 4.029 0 0 1 3.911-3.565h77.75a3.189 3.189 0 0 1 3.22 3.565 4.029 4.029 0 0 1-3.911 3.565z" fill="#e2eaff"/><path data-name="Path 7358" d="M329.537 61.417h-48.905a3.189 3.189 0 0 1-3.22-3.566 4.028 4.028 0 0 1 3.911-3.565h48.905a3.189 3.189 0 0 1 3.22 3.565 4.029 4.029 0 0 1-3.911 3.566z" fill="#e2eaff"/><g data-name="Group 3134"><g data-name="Group 3128" transform="translate(214.871 17.093)"><ellipse data-name="Ellipse 528" cx="24.062" cy="21.844" rx="24.062" ry="21.844" transform="rotate(-42.365 41.84 16.214)" fill="#fff"/><path data-name="Path 7359" d="M30.284 55.549A20.768 20.768 0 0 1 9.209 32.323 26.177 26.177 0 0 1 34.715 9.158 20.768 20.768 0 0 1 55.79 32.384a26.176 26.176 0 0 1-25.506 23.165zm4.43-45.756A25.529 25.529 0 0 0 9.84 32.384a20.134 20.134 0 0 0 20.444 22.53 25.529 25.529 0 0 0 24.874-22.591 20.134 20.134 0 0 0-20.444-22.53z"/></g><g data-name="Group 3133"><g data-name="Group 3132" transform="translate(218.905 20.091)" clip-path="url(#a)"><g data-name="Group 3131"><path data-name="Path 7360" d="M30.118 11.261c-6.769.053-11.511 8.553-13.177 11.538-1.428 2.559-4.164 7.462-2.373 9.981 1.45 2.04 4.51.6 13.442.493 9.043-.111 11.889 1.289 13.733-.821 2.242-2.565.432-7.378-.514-9.892-1.031-2.731-4.27-11.353-11.111-11.299z" fill="#050038"/><g data-name="Group 3129"><path data-name="Path 7361" d="m38.91 38.001-6.33-1.485.883-9.039-9.758-.187-.94 9.225L16.147 38a9.863 9.863 0 0 0-6.954 6L5.465 56.993h40.448L44.701 44a7.584 7.584 0 0 0-5.791-5.999z" fill="#fff"/><path data-name="Path 7362" d="M45.913 57.317H5.462a.317.317 0 0 1-.3-.4L8.89 43.924a10.2 10.2 0 0 1 7.189-6.227l6.393-1.441.917-9a.318.318 0 0 1 .316-.285h.006l9.758.187a.317.317 0 0 1 .309.348l-.856 8.762 6.06 1.422a7.9 7.9 0 0 1 6.03 6.253l1.216 13.024a.318.318 0 0 1-.316.347zm-40.027-.635 39.676-.003-1.18-12.646a7.267 7.267 0 0 0-5.548-5.725l-6.33-1.485a.317.317 0 0 1-.243-.34l.85-8.7-9.123-.175-.91 8.935a.318.318 0 0 1-.247.277l-6.618 1.485a9.548 9.548 0 0 0-6.728 5.81z"/></g><g data-name="Group 3130" fill="#fff"><path data-name="Path 7363" d="M36.232 22.108c-.106-3.317-2.423-7.616-6.43-7.588-3.866.026-6.75 4.063-7.7 6.946a8.874 8.874 0 0 0-.059 5.42c.075.235 1.817 5.4 6.038 5.357 4.387-.044 7.045-5.668 7.244-6.1a8.9 8.9 0 0 0 .907-4.035z"/><path data-name="Path 7364" d="M28.033 32.561c-4.453 0-6.214-5.35-6.287-5.578a9.157 9.157 0 0 1 .059-5.616c.939-2.864 3.843-7.136 7.995-7.165 4.442-.033 6.647 4.694 6.749 7.9a9.273 9.273 0 0 1-.931 4.174c-.292.639-2.984 6.244-7.529 6.29zm1.807-17.725h-.035c-3.791.026-6.548 4.14-7.4 6.728a8.513 8.513 0 0 0-.058 5.225c.016.052 1.689 5.137 5.685 5.137h.048c4.225-.042 6.849-5.679 6.958-5.919a8.542 8.542 0 0 0 .873-3.89c-.093-3.059-2.259-7.281-6.071-7.281z"/></g><path data-name="Path 7365" d="M21.644 20.784 37 20.845c.024-.443.179-4.369-2.8-6.415a7.2 7.2 0 0 0-4.279-1.137 8.463 8.463 0 0 0-4.63 1.5 9.206 9.206 0 0 0-3.647 5.991z" fill="#050038"/></g></g></g></g></g><g data-name="Group 3144"><g data-name="Group 3136" transform="translate(43.202 54.841)"><circle data-name="Ellipse 529" cx="14.915" cy="14.915" r="14.915" transform="rotate(-86.85 29.416 .453)" fill="#050038"/><path data-name="Path 7366" d="M100.638 109.1c-17.927 4.707-89.417 22.628-99.378 2.895-3.027-6 .084-14.571 2.185-20.361 6.683-18.418 22.991-27.378 29.867-40.579a69.546 69.546 0 0 0 6.161-18c.165-.989 1.718-9.924 10.181-14.141 4.378-2.182 10.54-2.718 19.148.742 0 0 7.546-1.956 14.158 2.346 4.713 3.066 6.847 7.93 8.186 12.28 6.166 20.026 9.303 71.609 9.492 74.818z" fill="#050038"/><path data-name="Path 7367" d="M40.195 30.841a.318.318 0 0 1-.3-.422c1.456-4.169 6.127-13.834 18.075-13.563a.317.317 0 0 1-.007.634h-.007c-.165 0-.331-.006-.493-.006-10.756 0-15.242 8.2-16.968 13.143a.318.318 0 0 1-.3.214z" fill="#fff"/></g><g data-name="Group 3138"><g data-name="Group 3137" fill="#fee6c2"><path data-name="Path 7368" d="M193.633 251.832h-66.372l4.737-38.547 36.349-7.071z"/><path data-name="Path 7369" d="M193.633 252.149h-66.372a.317.317 0 0 1-.315-.356l4.737-38.547a.317.317 0 0 1 .254-.273l36.349-7.071a.317.317 0 0 1 .338.158l25.286 45.618a.317.317 0 0 1-.278.471zm-66.013-.635h65.475l-24.913-44.945-35.9 6.983z"/></g><path data-name="Path 7370" d="m145.741 218.352 33.65-.709s-15.052-30.864-24.512-49.106a34.645 34.645 0 0 0-21.945-17.574c-15.663-4.113-41.841-8.743-68.644-3.609a22.885 22.885 0 0 0-14.412 9.272c-9.082 12.875-13.827 39.145-19.581 58.237l37.143.68-8.847 30.911 71.721-.412z" fill="#3f53d9"/><path data-name="Path 7371" d="M166.262 258.005H49.647a23.293 23.293 0 0 1-22.705-28.489l3.355-14.651s25.815-6.111 42.663.68l-3.517 14.127h54.674a46.721 46.721 0 0 1 28.774 9.665 37.974 37.974 0 0 1 13.371 18.668z" fill="#fee6c2"/><path data-name="Path 7372" d="M166.261 258.321H49.648a23.61 23.61 0 0 1-23.015-28.88l3.355-14.65a.317.317 0 1 1 .618.142l-3.354 14.65a22.976 22.976 0 0 0 22.4 28.1h116.175a37.552 37.552 0 0 0-13.131-18.1 44.752 44.752 0 0 0-13.468-7.177.317.317 0 1 1 .2-.6 45.391 45.391 0 0 1 13.658 7.279 38.075 38.075 0 0 1 13.477 18.827.317.317 0 0 1-.3.411z"/><path data-name="Path 7373" d="M151.524 253.591a.317.317 0 0 1-.294-.2 21.6 21.6 0 0 0-13.858-12.388.317.317 0 1 1 .172-.61 22.242 22.242 0 0 1 14.273 12.759.317.317 0 0 1-.174.414.312.312 0 0 1-.119.025z"/><path data-name="Path 7374" d="M139.167 253.86a.318.318 0 0 1-.29-.188 20 20 0 0 0-11.718-10.649.318.318 0 0 1 .2-.6 20.65 20.65 0 0 1 12.1 10.992.317.317 0 0 1-.289.447z"/><path data-name="Path 7375" d="M75.035 215.272a.312.312 0 0 1-.093-.014.317.317 0 0 1-.211-.4l7.638-24.98a11.278 11.278 0 0 1 1.724-3.821 3.994 3.994 0 0 1 3.9-1.613.318.318 0 1 1-.146.618 3.44 3.44 0 0 0-3.26 1.391 10.636 10.636 0 0 0-1.614 3.611l-7.638 24.98a.317.317 0 0 1-.3.228z"/><path data-name="Path 7376" d="M114.736 197.336a9.821 9.821 0 0 1-5.312-1.687 20.14 20.14 0 0 1-5.213-5.44c-9.3-13.173-12.293-29.863-14.935-44.587a.317.317 0 1 1 .625-.112c2.63 14.66 5.611 31.275 14.829 44.333a19.553 19.553 0 0 0 5.042 5.274 8.433 8.433 0 0 0 6.842 1.327c4.288-1.23 6.135-6.372 6.929-10.47a67.747 67.747 0 0 0-3.343-37.011.317.317 0 1 1 .591-.23 68.384 68.384 0 0 1 3.375 37.362c-1.187 6.126-3.738 9.916-7.377 10.959a7.43 7.43 0 0 1-2.053.282z"/><path data-name="Path 7377" d="M134.658 221.286a10.363 10.363 0 0 1-2.341-.262.317.317 0 1 1 .143-.618 11.87 11.87 0 0 0 11.28-4.033 16.544 16.544 0 0 0 3.611-11.835 27.616 27.616 0 0 0-4.023-12.019.317.317 0 0 1 .548-.32 28.245 28.245 0 0 1 4.109 12.3 17.184 17.184 0 0 1-3.763 12.29 12.911 12.911 0 0 1-9.564 4.497z"/></g><g data-name="Group 3141"><path data-name="Path 7378" d="m116.378 147.414-2.494 22.429-23.762-24.756a10.587 10.587 0 0 0 7.091-7.243l6.465-22.861 17.983 9.028z" fill="#fee6c2"/><path data-name="Path 7379" d="M116.382 147.736a.318.318 0 0 1-.31-.387l5.228-23.162-17.418-8.744-6.36 22.492a10.86 10.86 0 0 1-7.3 7.46.317.317 0 1 1-.185-.607 10.23 10.23 0 0 0 6.878-7.026l6.464-22.861a.317.317 0 0 1 .448-.2l17.983 9.028a.317.317 0 0 1 .168.353l-5.283 23.4a.318.318 0 0 1-.313.254z"/><g data-name="Group 3139"><path data-name="Path 7380" d="M104.775 109.439s-4.357-7.361-9.129-5.875c-7.273 2.264-6.8 15.261 5.182 14.635 0 0 14.179 18.114 27.783 13.087s3.627-35.661.988-40.913c0 0-18.07-2.406-19.421 8.488-.784 6.338.74 10.578-5.403 10.578z" fill="#fee6c2"/><path data-name="Path 7381" d="M123.677 132.472c-4.428 0-9.265-1.885-14.248-5.59a52.343 52.343 0 0 1-8.747-8.359c-6.444.279-9.4-3.263-10.015-6.689a7.476 7.476 0 0 1 4.884-8.573c4.615-1.437 8.712 4.753 9.4 5.859 4.319-.06 4.427-2.338 4.621-6.43.055-1.156.117-2.466.291-3.868a8.432 8.432 0 0 1 3.313-5.833c5.594-4.32 16.023-2.99 16.464-2.931a.317.317 0 0 1 .242.172c2.121 4.221 8.92 24.549 4.669 35.327a9.911 9.911 0 0 1-5.83 6.025 14.47 14.47 0 0 1-5.044.89zm-22.848-14.59a.317.317 0 0 1 .25.122c.14.179 14.192 17.874 27.423 12.985a9.3 9.3 0 0 0 5.46-5.663c4.125-10.461-2.4-30.173-4.57-34.657-1.37-.154-10.817-1.046-15.828 2.824a7.818 7.818 0 0 0-3.07 5.408c-.171 1.378-.232 2.675-.286 3.82-.194 4.085-.334 7.036-5.432 7.036a.317.317 0 0 1-.273-.156c-.042-.071-4.284-7.128-8.762-5.734-3.6 1.121-4.979 4.884-4.448 7.856.57 3.188 3.369 6.478 9.52 6.16z"/></g><path data-name="Path 7382" d="M102.243 113.993a.316.316 0 0 1-.218-.087 7.428 7.428 0 0 0-6.47-1.868.317.317 0 0 1-.124-.622 8.072 8.072 0 0 1 7.031 2.03.317.317 0 0 1-.218.547z"/><g data-name="Group 3140"><path data-name="Path 7383" d="M122.459 114.026c-2.5 0-4.879-2.075-5.569-5.055a6.908 6.908 0 0 1 .5-4.663 4.74 4.74 0 0 1 7.343-1.7 7.168 7.168 0 0 1 2 8.634 4.888 4.888 0 0 1-3.252 2.666 4.49 4.49 0 0 1-1.022.118zm-.8-11.867a3.9 3.9 0 0 0-.881.1 4.265 4.265 0 0 0-2.828 2.334 6.27 6.27 0 0 0-.444 4.234c.7 3.041 3.315 5.044 5.823 4.464a4.266 4.266 0 0 0 2.828-2.335 6.536 6.536 0 0 0-1.814-7.842 4.445 4.445 0 0 0-2.682-.955z"/><path data-name="Path 7384" d="M135.697 110.963a5.068 5.068 0 0 1-3.064-1.086 7.168 7.168 0 0 1-2-8.634 4.74 4.74 0 0 1 7.344-1.7 7.168 7.168 0 0 1 2 8.634 4.889 4.889 0 0 1-3.251 2.667 4.547 4.547 0 0 1-1.029.119zm-.786-11.869a3.9 3.9 0 0 0-.882.1 4.266 4.266 0 0 0-2.828 2.334 6.536 6.536 0 0 0 1.814 7.842 4.107 4.107 0 0 0 6.394-1.479 6.536 6.536 0 0 0-1.814-7.842 4.445 4.445 0 0 0-2.683-.957z"/><path data-name="Path 7385" d="M126.912 106.97a.317.317 0 0 1-.244-.519 3.123 3.123 0 0 1 3.943-.89.318.318 0 0 1-.323.547c-1.67-.987-3.073.676-3.132.747a.316.316 0 0 1-.244.115z"/><path data-name="Path 7386" d="M117.2 109.217h-.02l-12.561-.775a.317.317 0 1 1 .039-.633l12.561.775a.317.317 0 0 1-.019.634z"/></g></g><g data-name="Group 3143"><path data-name="Path 7387" d="M246.117 258.628H115.13a3.274 3.274 0 0 1-3.274-3.274v-.771a6.44 6.44 0 0 1 6.44-6.44h137.261l-1.1 4.094a8.635 8.635 0 0 1-8.34 6.391z" fill="#050038"/><g data-name="Group 3142" fill="#050038"><path data-name="Path 7388" d="M249.947 253.881h-81a5.324 5.324 0 0 1-5.168-6.605l15.309-61.758a5.324 5.324 0 0 1 5.168-4.043h81a5.324 5.324 0 0 1 5.168 6.605l-15.309 61.758a5.324 5.324 0 0 1-5.168 4.043z"/><path data-name="Path 7389" d="M249.949 254.04h-81a5.483 5.483 0 0 1-5.322-6.8l15.309-61.758a5.473 5.473 0 0 1 5.322-4.164h81a5.483 5.483 0 0 1 5.322 6.8l-15.309 61.759a5.473 5.473 0 0 1-5.322 4.163zm-65.693-72.407a5.156 5.156 0 0 0-5.014 3.922l-15.309 61.759a5.166 5.166 0 0 0 5.014 6.408h81a5.156 5.156 0 0 0 5.014-3.923l15.309-61.758a5.166 5.166 0 0 0-5.014-6.409z"/></g><path data-name="Path 7390" d="M225.124 205.306a2.675 2.675 0 1 1-2.675-2.675 2.675 2.675 0 0 1 2.675 2.675z" fill="#3f53d9"/></g></g></g></g></svg>