<svg xmlns="http://www.w3.org/2000/svg" width="388" height="249.136"><g data-name="Group 3014"><g data-name="Group 3008"><g data-name="Group 3005"><g data-name="Group 3004"><path data-name="Path 7116" d="M374.215 12.467a1.576 1.576 0 0 0-3.066-.243 304.844 304.844 0 0 0-12.234 63.626 557.944 557.944 0 0 0-1.137 18.014l16.81 1.329a557.883 557.883 0 0 0 1.708-17.969 304.853 304.853 0 0 0-2.081-64.757z" fill="#fff"/><path data-name="Path 7117" d="M374.588 95.507h-.025l-16.81-1.329a.315.315 0 0 1-.29-.328c.272-5.855.655-11.919 1.138-18.024a303.649 303.649 0 0 1 12.246-63.694 1.891 1.891 0 0 1 3.678.291 303.622 303.622 0 0 1 2.089 64.829 558.132 558.132 0 0 1-1.709 17.979.315.315 0 0 1-.317.276zm-16.482-1.934 16.2 1.281a562.06 562.06 0 0 0 1.674-17.656 302.941 302.941 0 0 0-2.08-64.688 1.262 1.262 0 0 0-2.454-.194 302.992 302.992 0 0 0-12.22 63.557 568.436 568.436 0 0 0-1.119 17.701z"/></g><path data-name="Path 7118" d="M366.294 93.453h-.025a.315.315 0 0 1-.289-.339c2.011-25.244 4.022-50.677 5.977-75.594a.315.315 0 0 1 .628.049 65980.554 65980.554 0 0 1-5.978 75.595.315.315 0 0 1-.313.289z"/></g><g data-name="Group 3007"><g data-name="Group 3006"><path data-name="Path 7119" d="M332.013 12.467a1.576 1.576 0 0 1 3.066-.243 304.832 304.832 0 0 1 12.234 63.626c.492 6.218.869 12.256 1.137 18.014l-16.811 1.329a557.883 557.883 0 0 1-1.708-17.969 304.849 304.849 0 0 1 2.082-64.757z" fill="#fff"/><path data-name="Path 7120" d="M331.64 95.508a.315.315 0 0 1-.313-.28 558.404 558.404 0 0 1-1.709-17.979 303.681 303.681 0 0 1 2.084-64.827 1.891 1.891 0 0 1 3.678-.291 303.59 303.59 0 0 1 12.247 63.694 561.01 561.01 0 0 1 1.137 18.024.315.315 0 0 1-.289.328l-16.81 1.329zm.685-83a303.019 303.019 0 0 0-2.08 64.688 555.846 555.846 0 0 0 1.674 17.656l16.2-1.281a559.249 559.249 0 0 0-1.122-17.7 302.961 302.961 0 0 0-12.22-63.557 1.262 1.262 0 0 0-2.454.194z"/></g><path data-name="Path 7121" d="M339.935 93.453a.315.315 0 0 1-.314-.29 63615.296 63615.296 0 0 1-5.977-75.595.315.315 0 1 1 .627-.049c1.956 24.917 3.966 50.35 5.977 75.594a.315.315 0 0 1-.289.339z"/></g></g><g data-name="Group 3010"><g data-name="Group 3009"><path data-name="Path 7122" d="M354.85 1.702a1.778 1.778 0 0 0-3.468 0 343.734 343.734 0 0 0-8.1 72.607c0 7.033.112 13.853.323 20.35h19.014c.21-6.5.323-13.317.323-20.35a343.73 343.73 0 0 0-8.092-72.607z" fill="#050038"/><path data-name="Path 7123" d="M362.622 94.973h-19.014a.314.314 0 0 1-.314-.3 630.116 630.116 0 0 1-.323-20.36 342.334 342.334 0 0 1 8.1-72.676 2.092 2.092 0 0 1 4.082 0 342.35 342.35 0 0 1 8.1 72.676c0 6.892-.109 13.743-.323 20.36a.314.314 0 0 1-.308.3zm-18.709-.629h18.4c.208-6.517.313-13.255.313-20.035a341.719 341.719 0 0 0-8.088-72.538 1.463 1.463 0 0 0-2.854 0 341.7 341.7 0 0 0-8.088 72.538c.003 6.78.109 13.518.316 20.032z"/></g><path data-name="Path 7124" d="M362.622 94.973h-19.014a.314.314 0 0 1-.314-.3 630.162 630.162 0 0 1-.323-20.36c0-6.185.2-12.568.584-18.97a.319.319 0 0 1 .333-.3.315.315 0 0 1 .295.333 314.67 314.67 0 0 0-.584 18.932c0 6.78.105 13.519.313 20.035h18.4c.208-6.517.313-13.255.313-20.035 0-6.464-.215-13.138-.64-19.838a.315.315 0 0 1 .294-.334.319.319 0 0 1 .334.294c.425 6.713.641 13.4.641 19.878 0 6.892-.109 13.743-.323 20.36a.314.314 0 0 1-.309.305z"/><path data-name="Path 7125" d="M353.115 93.401a.314.314 0 0 1-.315-.315c.017-28.334.017-57.1 0-85.5a.315.315 0 0 1 .315-.315.314.314 0 0 1 .314.314c.017 28.4.017 57.17 0 85.5a.314.314 0 0 1-.314.316z" fill="#fff"/></g><g data-name="Group 3013"><g data-name="Group 3011"><path data-name="Path 7126" d="M387.685 91.595h-69.142l18.212 74.2h32.717z" fill="#abb2e7"/><path data-name="Path 7127" d="M369.472 166.116h-32.717a.314.314 0 0 1-.305-.24l-18.212-74.205a.314.314 0 0 1 .305-.39h69.142a.315.315 0 0 1 .305.39l-18.212 74.205a.315.315 0 0 1-.306.24zm-32.47-.629h32.224l18.058-73.576h-68.34z"/></g><g data-name="Group 3012"><path data-name="Path 7128" d="M325.315 106.204z" fill="#fff"/><path data-name="Path 7129" d="M380.915 106.513h-55.6a.315.315 0 0 1 0-.629h55.6a.315.315 0 1 1 0 .629z"/></g></g></g><g data-name="Group 3033"><g data-name="Group 3020"><g data-name="Group 3015"><path data-name="Path 7130" d="M50.297 151.074H7.483a3.432 3.432 0 0 1-3.364-2.754L.408 129.91a4.47 4.47 0 0 1 4.382-5.354h36.332a9.805 9.805 0 0 1 9.612 7.868l2.931 14.539a3.432 3.432 0 0 1-3.368 4.111z" fill="#fff"/><path data-name="Path 7131" d="M50.297 151.389H7.479a3.758 3.758 0 0 1-3.673-3.006L.096 129.97a4.785 4.785 0 0 1 4.691-5.731h36.332a10.15 10.15 0 0 1 9.92 8.12l2.931 14.539a3.746 3.746 0 0 1-3.673 4.487zM4.787 124.87a4.156 4.156 0 0 0-4.074 4.977l3.711 18.409a3.127 3.127 0 0 0 3.056 2.5h42.818a3.117 3.117 0 0 0 3.056-3.733l-2.931-14.539a9.518 9.518 0 0 0-9.3-7.615z"/></g><g data-name="Group 3017"><g data-name="Group 3016" transform="translate(20.244 175.566)"><rect data-name="Rectangle 4256" width="60.409" height="9.944" rx="4.972" transform="rotate(180 30.362 5.129)" fill="#fff"/><path data-name="Path 7132" d="M56.674 10.572H4.36A4.37 4.37 0 0 1-.005 6.207V4.363A4.37 4.37 0 0 1 4.36-.002h52.309a4.37 4.37 0 0 1 4.364 4.365v1.844a4.369 4.369 0 0 1-4.359 4.365zM4.365.628A3.74 3.74 0 0 0 .629 4.363v1.844a3.74 3.74 0 0 0 3.736 3.735h52.309a3.739 3.739 0 0 0 3.735-3.735V4.363A3.739 3.739 0 0 0 56.674.628z"/></g></g><g data-name="Group 3018"><path data-name="Path 7133" d="M18.33 181.5a8.092 8.092 0 0 1-8.082-8.083v-22.344a.315.315 0 0 1 .629 0v22.344a7.461 7.461 0 0 0 7.453 7.453.315.315 0 0 1 0 .629z"/></g><g data-name="Group 3019"><path data-name="Path 7134" d="M4.538 248.636a.3.3 0 0 1-.1-.017.314.314 0 0 1-.2-.4l19.779-58.033a.316.316 0 1 1 .6.2L4.839 248.418a.315.315 0 0 1-.301.218z"/><path data-name="Path 7135" d="M96.99 248.636a.315.315 0 0 1-.3-.213l-19.779-58.032a.316.316 0 0 1 .6-.2l19.779 58.033a.314.314 0 0 1-.2.4.3.3 0 0 1-.1.012z"/></g></g><g data-name="Group 3032"><g data-name="Group 3023"><g data-name="Group 3021"><path data-name="Path 7136" d="m47.456 145.588-5.589 14.483a15.34 15.34 0 0 0 14.4 20.863c25.614-.155 63.933-.308 63.933.156 0 .59-16.843 48.417-22 63.036a3.15 3.15 0 0 0 2.973 4.2h50.83a1.749 1.749 0 0 0 1.022-3.168l-12.57-9.058s13.936-28.625 23.724-56.4a25.62 25.62 0 0 0-24.185-34.108z" fill="#050038"/><path data-name="Path 7137" d="M152.011 248.637h-50.83a3.465 3.465 0 0 1-3.27-4.616c10.076-28.585 20.874-59.365 21.9-62.7-2.783-.28-25.183-.307-63.542-.076h-.095a15.655 15.655 0 0 1-14.6-21.291l5.589-14.484a.314.314 0 0 1 .293-.2h92.547a25.935 25.935 0 0 1 24.482 34.528c-9.213 26.144-22.26 53.371-23.623 56.2l12.355 8.9a2.064 2.064 0 0 1-1.206 3.738zM97.46 180.464c22.566 0 22.817.252 22.961.394a.337.337 0 0 1 .1.231c0 .569-11.971 34.65-22.014 63.141a2.835 2.835 0 0 0 2.676 3.778h50.83a1.434 1.434 0 0 0 .838-2.6l-12.57-9.058a.314.314 0 0 1-.1-.393c.14-.286 14.04-28.927 23.71-56.367a25.305 25.305 0 0 0-23.888-33.689l-92.331-.001-5.512 14.282a15.025 15.025 0 0 0 14.011 20.435h.1c18.623-.11 31.827-.153 41.189-.153z"/></g><path data-name="Path 7138" d="M125.777 240.948q-1.831 0-3.8-.192c-3.143-.306-6.287-.928-9.327-1.53-2.488-.492-5.062-1-7.613-1.333a.314.314 0 0 1-.271-.353.31.31 0 0 1 .352-.271c2.572.333 5.155.845 7.654 1.339 3.025.6 6.153 1.218 9.266 1.521 6.727.654 12.22-.4 16.329-3.132a5.409 5.409 0 0 0 1.006-.813.315.315 0 1 1 .464.425 6.042 6.042 0 0 1-1.122.913c-3.424 2.278-7.765 3.426-12.938 3.426z"/><g data-name="Group 3022" stroke="#3c3c3c"><path data-name="Path 7139" d="m30.867 145.588-5.589 14.483a15.34 15.34 0 0 0 14.4 20.863c25.614-.155 63.933-.308 63.933.156 0 .59-16.843 48.417-22 63.036a3.15 3.15 0 0 0 2.973 4.2h50.83a1.749 1.749 0 0 0 1.022-3.168l-12.57-9.058s13.936-28.625 23.724-56.4a25.62 25.62 0 0 0-24.185-34.108z" fill="#050038"/><path data-name="Path 7140" d="M135.422 248.637h-50.83a3.465 3.465 0 0 1-3.27-4.616c4.928-13.98 20.647-58.62 21.9-62.7-2.783-.28-25.183-.307-63.542-.076h-.095a15.654 15.654 0 0 1-14.6-21.291l5.589-14.484a.314.314 0 0 1 .293-.2h92.547a25.935 25.935 0 0 1 24.482 34.528c-9.213 26.144-22.26 53.371-23.623 56.2l12.356 8.9a2.064 2.064 0 0 1-1.206 3.738zm-54.551-68.173c22.566 0 22.817.252 22.961.394a.337.337 0 0 1 .1.231c0 .567-11.971 34.649-22.013 63.141a2.835 2.835 0 0 0 2.676 3.778h50.83a1.434 1.434 0 0 0 .838-2.6l-12.57-9.058a.315.315 0 0 1-.1-.393c.14-.286 14.04-28.927 23.71-56.367a25.305 25.305 0 0 0-23.888-33.689l-92.332-.001-5.512 14.282a15.025 15.025 0 0 0 14.011 20.435h.1c18.621-.11 31.827-.153 41.189-.153z"/></g><path data-name="Path 7141" d="M109.185 240.948q-1.831 0-3.8-.192c-3.143-.306-6.287-.928-9.327-1.53-2.488-.492-5.061-1-7.612-1.333a.314.314 0 0 1-.271-.353.31.31 0 0 1 .352-.271c2.572.333 5.155.845 7.654 1.339 3.025.6 6.154 1.218 9.266 1.521 6.727.654 12.22-.4 16.329-3.132a5.413 5.413 0 0 0 1.006-.813.315.315 0 1 1 .464.425 6.008 6.008 0 0 1-1.122.913c-3.422 2.278-7.763 3.426-12.939 3.426z"/><path data-name="Path 7142" d="M118.681 181.501h-12.86a.315.315 0 0 1 0-.629h12.86a.315.315 0 0 1 0 .629z"/></g><g data-name="Group 3024" transform="translate(33.921 29.363)"><circle data-name="Ellipse 523" cx="8.402" cy="8.402" r="8.402" transform="rotate(-4.44 24.728 -199.445)" fill="#050038"/><path data-name="Path 7143" d="M56.692 61.623C46.592 64.274 6.321 74.37.71 63.254c-1.705-3.378.047-8.208 1.231-11.47 3.765-10.375 12.951-15.422 16.825-22.859a39.179 39.179 0 0 0 3.471-10.14 11.17 11.17 0 0 1 5.735-7.966c2.466-1.229 5.938-1.531 10.786.418a10.924 10.924 0 0 1 7.976 1.321c2.655 1.727 3.857 4.467 4.612 6.918 3.473 11.282 5.24 40.34 5.346 42.147z" fill="#050038"/><path data-name="Path 7144" d="M22.643 17.673a.315.315 0 0 1-.3-.419c.818-2.343 3.423-7.735 10.03-7.735h.283a.315.315 0 0 1 .307.322.327.327 0 0 1-.322.308h-.274c-5.975 0-8.471 4.564-9.431 7.313a.315.315 0 0 1-.293.211z" fill="#fff"/></g><g data-name="Group 3029"><g data-name="Group 3027"><g data-name="Group 3026"><g data-name="Group 3025"><path data-name="Path 7145" d="M107.774 107.028c3.3-4.946 13.68-26.469 18.441-30.1 3.081-2.349 7.9-2.706 9.645-4.059 1.331-1.03 2.877-1.667 3.731-1.089 1 .678 1.289 2.5-.838 3.815a8.092 8.092 0 0 0-2.893 2.832s1.287-.245 4.95-1 5.936-3.06 7.637-2.677.758 1.855.758 1.855c1.666-.784 2.7-.631 3.048.436s-.749 2.23-.749 2.23a1.712 1.712 0 0 1 .144 2.463c.981 1.194.664 3.176-2.518 5.74s-8.674 2.988-12.845 3.568c-3.08.428-2.49 27.734-12.535 36.331-11.592 9.921-36.271-7.939-37.944-9.658l12.781-17.085z" fill="#fee6c2"/><path data-name="Path 7146" d="M114.791 130.676c-12.31 0-27.78-11.273-29.212-12.743a.315.315 0 0 1-.026-.408l12.781-17.085a.314.314 0 0 1 .432-.07l8.923 6.216c1.066-1.658 2.774-4.8 4.735-8.413 4.593-8.457 10.309-18.982 13.6-21.492a19.047 19.047 0 0 1 6.141-2.671 12.158 12.158 0 0 0 3.5-1.387c1.673-1.294 3.206-1.706 4.1-1.1a2.085 2.085 0 0 1 .9 1.785 3.126 3.126 0 0 1-1.75 2.558 8.839 8.839 0 0 0-2.38 2.11c.736-.146 2.07-.415 4.208-.858a17.161 17.161 0 0 0 4.352-1.677c1.357-.682 2.428-1.222 3.418-1a1.514 1.514 0 0 1 1.174.836 1.352 1.352 0 0 1 .063.759 2.7 2.7 0 0 1 1.939-.1 1.555 1.555 0 0 1 .86 1.009 2.693 2.693 0 0 1-.627 2.312 1.956 1.956 0 0 1 .118 2.484 2.458 2.458 0 0 1 .4 1.643c-.135 1.322-1.183 2.781-3.112 4.336-2.874 2.316-7.442 2.909-11.472 3.432-.524.068-1.035.134-1.527.2-.914.127-1.625 4.437-2.378 9-1.431 8.673-3.593 21.779-10 27.258a13.669 13.669 0 0 1-9.16 3.066zm-28.565-13a70.858 70.858 0 0 0 14.958 8.944c6.92 3.041 16.418 5.6 22.361.513 6.228-5.33 8.368-18.3 9.784-26.882 1.04-6.3 1.6-9.339 2.913-9.521a88.817 88.817 0 0 1 1.533-.2c3.947-.512 8.422-1.093 11.157-3.3 2.235-1.8 2.8-3.12 2.882-3.91a1.814 1.814 0 0 0-.409-1.385.314.314 0 0 1 .011-.412 1.38 1.38 0 0 0-.127-2.022.316.316 0 0 1-.014-.445c.01-.01.963-1.043.68-1.918a.941.941 0 0 0-.511-.626 2.833 2.833 0 0 0-2.1.377.315.315 0 0 1-.4-.454 1.181 1.181 0 0 0 .167-.919.945.945 0 0 0-.729-.46c-.769-.173-1.753.322-3 .948a17.95 17.95 0 0 1-4.507 1.731c-3.623.75-4.942 1-4.955 1a.315.315 0 0 1-.339-.451 8.351 8.351 0 0 1 3.008-2.957 2.614 2.614 0 0 0 1.452-2.035 1.459 1.459 0 0 0-.625-1.252c-.629-.425-1.98.008-3.362 1.078a12.416 12.416 0 0 1-3.706 1.492 18.587 18.587 0 0 0-5.941 2.569c-3.184 2.428-9.106 13.331-13.43 21.292-2.08 3.83-3.876 7.137-4.94 8.731a.316.316 0 0 1-.2.134.312.312 0 0 1-.238-.051l-8.939-6.227z"/></g><path data-name="Path 7147" d="M140.193 85.537q-.6 0-1.2-.054a.315.315 0 0 1 .057-.627 13.014 13.014 0 0 0 7.755-1.751c.246-.146.488-.3.729-.454a15.517 15.517 0 0 1 1.338-.79 4.541 4.541 0 0 1 2.472-.563.315.315 0 0 1-.061.626 3.948 3.948 0 0 0-2.128.5c-.439.222-.868.5-1.283.759a25.1 25.1 0 0 1-.747.465 13.678 13.678 0 0 1-6.932 1.889z"/><path data-name="Path 7148" d="M138.69 83.031a.315.315 0 0 1-.027-.628 19.1 19.1 0 0 0 6.786-1.877c.28-.137.556-.28.833-.424a17.987 17.987 0 0 1 1.919-.9 5.393 5.393 0 0 1 3.149-.326.315.315 0 1 1-.145.612 4.788 4.788 0 0 0-2.782.3 17.561 17.561 0 0 0-1.852.87c-.281.146-.562.292-.846.431a19.733 19.733 0 0 1-7.008 1.938z"/><path data-name="Path 7149" d="M138.275 81.302a.315.315 0 0 1-.05-.625 27.425 27.425 0 0 0 10.44-4.029.315.315 0 1 1 .342.528 28.065 28.065 0 0 1-10.682 4.122.318.318 0 0 1-.05.004z"/></g></g><g data-name="Group 3028"><path data-name="Path 7150" d="M106.333 145.469H30.726a4.3 4.3 0 0 0-4.3 4.295 4.3 4.3 0 0 0 4.3 4.3h75.607a4.3 4.3 0 0 0 4.3-4.3 4.3 4.3 0 0 0-4.3-4.295z" fill="#fff"/><path data-name="Path 7151" d="M106.328 154.373h-75.6a4.61 4.61 0 1 1 0-9.22h75.6a4.61 4.61 0 1 1 0 9.22zm-75.607-8.59a3.981 3.981 0 1 0 0 7.961h75.607a3.981 3.981 0 1 0 0-7.961z"/></g><path data-name="Path 7152" d="m91.684 123.131 14.681-19.813s-15.385-15.577-21.9-18.149c-8.485-3.352-23.57-4.925-38.669-2.033a12.892 12.892 0 0 0-8.119 5.223c-5.116 7.253-7.789 22.051-11.031 32.807l20.923.383-4.978 17.41 40.4-.232z" fill="#3f53d9"/><path data-name="Path 7153" d="M103.242 145.468H37.551a13.122 13.122 0 0 1-12.794-16.049l1.89-8.253s14.542-3.442 24.033.383l-1.981 7.958h30.8a26.318 26.318 0 0 1 16.209 5.445 21.391 21.391 0 0 1 7.534 10.516z" fill="#fee6c2"/><path data-name="Path 7154" d="M103.243 145.783H37.552a13.436 13.436 0 0 1-13.1-16.435l1.89-8.253a.315.315 0 1 1 .613.141l-1.89 8.253a12.807 12.807 0 0 0 12.484 15.665h65.259a21.062 21.062 0 0 0-7.293-9.955 25.071 25.071 0 0 0-7.546-4.021.316.316 0 0 1 .2-.6 25.7 25.7 0 0 1 7.735 4.123 21.578 21.578 0 0 1 7.638 10.672.314.314 0 0 1-.3.408z"/><path data-name="Path 7155" d="M94.942 143.118a.314.314 0 0 1-.291-.2 12.027 12.027 0 0 0-7.718-6.9.315.315 0 1 1 .171-.606 12.667 12.667 0 0 1 8.129 7.268.315.315 0 0 1-.291.433z"/><path data-name="Path 7156" d="M87.98 143.267a.315.315 0 0 1-.288-.187 11.133 11.133 0 0 0-6.52-5.925.316.316 0 1 1 .2-.6 11.768 11.768 0 0 1 6.894 6.265.314.314 0 0 1-.159.415.31.31 0 0 1-.127.032z"/><path data-name="Path 7157" d="M51.853 121.532a.308.308 0 0 1-.092-.014.314.314 0 0 1-.209-.393l4.3-14.072a6.453 6.453 0 0 1 .995-2.2 2.387 2.387 0 0 1 2.336-.956.315.315 0 1 1-.144.613 1.8 1.8 0 0 0-1.7.736 5.888 5.888 0 0 0-.885 1.989l-4.3 14.072a.315.315 0 0 1-.301.225z"/><path data-name="Path 7158" d="M74.218 111.428a5.668 5.668 0 0 1-3.067-.972 11.476 11.476 0 0 1-2.973-3.1c-5.256-7.446-6.946-16.864-8.436-25.172a.315.315 0 0 1 .62-.111c1.479 8.244 3.155 17.588 8.331 24.92a10.9 10.9 0 0 0 2.8 2.936 4.619 4.619 0 0 0 3.743.731c2.349-.674 3.367-3.523 3.807-5.794a38.022 38.022 0 0 0-1.877-20.774.315.315 0 1 1 .586-.229 38.658 38.658 0 0 1 1.908 21.123c-.679 3.5-2.149 5.676-4.252 6.279a4.322 4.322 0 0 1-1.19.163z"/><path data-name="Path 7159" d="M85.439 124.92a5.967 5.967 0 0 1-1.348-.151.315.315 0 1 1 .142-.613 6.546 6.546 0 0 0 6.22-2.228 9.184 9.184 0 0 0 2-6.569 15.425 15.425 0 0 0-2.248-6.711.315.315 0 1 1 .543-.317 16.043 16.043 0 0 1 2.333 6.987 9.815 9.815 0 0 1-2.152 7.021 7.413 7.413 0 0 1-5.49 2.581z"/></g><g data-name="Group 3031"><path data-name="Path 7160" d="m75.144 81.679-1.4 12.634-13.386-13.946a5.964 5.964 0 0 0 3.995-4.08l3.642-12.878 10.13 5.086z" fill="#fee6c2"/><path data-name="Path 7161" d="M75.144 81.994a.308.308 0 0 1-.069-.008.315.315 0 0 1-.238-.376l2.922-12.945-9.57-4.8-3.538 12.512a6.253 6.253 0 0 1-4.205 4.3.315.315 0 0 1-.184-.6 5.628 5.628 0 0 0 3.784-3.865l3.642-12.878a.314.314 0 0 1 .444-.2l10.13 5.086a.315.315 0 0 1 .166.35l-2.976 13.185a.315.315 0 0 1-.308.239z"/><g data-name="Group 3030"><path data-name="Path 7162" d="M68.606 60.285s-2.455-4.146-5.143-3.309c-4.1 1.275-3.832 8.6 2.919 8.244 0 0 7.987 10.2 15.651 7.372s2.043-20.089.557-23.047c0 0-10.18-1.355-10.94 4.782-.442 3.569.414 5.958-3.044 5.958z" fill="#fee6c2"/><path data-name="Path 7163" d="M79.202 73.409c-6.346 0-12.1-6.8-12.966-7.869-3.687.132-5.358-1.909-5.712-3.883a4.348 4.348 0 0 1 2.845-4.984c2.61-.81 4.911 2.51 5.41 3.293 2.231-.056 2.286-1.223 2.394-3.491.031-.654.066-1.395.165-2.189a4.882 4.882 0 0 1 1.916-3.376c3.195-2.467 9.124-1.712 9.375-1.678a.316.316 0 0 1 .24.171c1.2 2.39 5.046 13.9 2.635 20.012a5.716 5.716 0 0 1-3.364 3.472 8.43 8.43 0 0 1-2.938.522zm-12.82-8.5a.314.314 0 0 1 .248.121c.079.1 7.939 9.99 15.294 7.271a5.11 5.11 0 0 0 3-3.113c2.17-5.5-1.1-16.344-2.538-19.346-.978-.1-6.04-.517-8.744 1.572a4.272 4.272 0 0 0-1.677 2.955c-.1.771-.13 1.5-.161 2.142-.108 2.286-.194 4.093-3.2 4.093a.315.315 0 0 1-.271-.154c-.023-.039-2.359-3.922-4.778-3.169a3.731 3.731 0 0 0-2.412 4.271c.311 1.739 1.844 3.541 5.222 3.358z"/></g><path data-name="Path 7164" d="M67.18 62.985a.313.313 0 0 1-.216-.086 4.045 4.045 0 0 0-3.524-1.018.315.315 0 1 1-.123-.617 4.682 4.682 0 0 1 4.08 1.178.315.315 0 0 1-.217.543z"/></g></g></g><g data-name="Group 3059"><g data-name="Group 3034"><path data-name="Path 7165" d="M276.279 70.086a2.532 2.532 0 0 1-2.531-2.511c-.059-6.99-.079-13.287 0-16.367.22-9.115 11.583-22.685 23.948-13.574 9.095 6.7 15.789 17.576 20.622 28.931a2.532 2.532 0 0 1-2.333 3.52z" fill="#050038"/></g><g data-name="Group 3039"><g data-name="Group 3035" transform="translate(318.284 150.981)"><path data-name="Path 7166" d="M41.867 90.911a.314.314 0 0 1-.286-.183L.028.447A.315.315 0 1 1 .6.184l41.553 90.282a.315.315 0 0 1-.285.446z"/><circle data-name="Ellipse 524" cx="2.939" cy="2.939" r="2.939" transform="rotate(-7.973 679.322 -240.655)"/></g><g data-name="Group 3036" transform="translate(237.932 150.981)"><path data-name="Path 7167" d="M5.062 90.911a.315.315 0 0 1-.286-.446L46.329.184a.314.314 0 1 1 .571.263L5.348 90.725a.314.314 0 0 1-.286.186z"/><circle data-name="Ellipse 525" cx="2.939" cy="2.939" r="2.939" transform="rotate(-73.155 64.93 48.182)"/></g><g data-name="Group 3037"><path data-name="Path 7168" d="M239.386 156.87c0 22.012 25.288 35.051 56.483 35.051s56.483-13.039 56.483-35.051-25.289-44.661-56.483-44.661-56.483 22.649-56.483 44.661z" fill="#fff"/><path data-name="Path 7169" d="M295.868 192.238c-15.645 0-29.885-3.308-40.1-9.315-10.924-6.424-16.7-15.433-16.7-26.051 0-10.877 6.072-22.113 16.658-30.828a64.015 64.015 0 0 1 80.279 0c10.586 8.714 16.658 19.951 16.658 30.828 0 10.618-5.774 19.627-16.7 26.051-10.209 6.004-24.45 9.315-40.095 9.315zm0-79.712c-32.147 0-56.168 23.413-56.168 44.346 0 10.383 5.667 19.2 16.388 25.509 10.118 5.951 24.246 9.228 39.78 9.228s29.662-3.277 39.78-9.228c10.721-6.305 16.388-15.126 16.388-25.509 0-20.934-24.02-44.349-56.168-44.349z"/></g><g data-name="Group 3038"><path data-name="Path 7170" d="M336.976 151.584a26.569 26.569 0 0 1-25.536 21.475z" fill="#fff"/><path data-name="Path 7171" d="M311.443 173.378a.315.315 0 0 1-.006-.629 26.253 26.253 0 0 0 25.234-21.22.315.315 0 1 1 .618.121 26.884 26.884 0 0 1-25.839 21.729z"/></g></g><g data-name="Group 3043"><g data-name="Group 3042"><g data-name="Group 3040"><path data-name="Path 7172" d="m330.283 133.534-17.6-58.121s-27.78-.565-37.54 1.641c0 0-5.948 42.736-6.449 52.467z" fill="#3f53d9"/><path data-name="Path 7173" d="M330.287 133.85h-.021l-61.6-4.013a.315.315 0 0 1-.293-.33c.5-9.633 6.393-52.067 6.452-52.495a.315.315 0 0 1 .242-.264c9.685-2.189 37.336-1.654 37.615-1.648a.315.315 0 0 1 .295.223l17.608 58.121a.315.315 0 0 1-.3.406zm-61.266-4.621 60.833 3.963-17.41-57.468c-2.666-.046-27.705-.424-37.023 1.591-.453 3.268-5.823 42.122-6.4 51.913z"/></g><g data-name="Group 3041"><path data-name="Path 7174" d="M256.494 127.356s8.8-50.774 18.646-50.3l-5.008 52.723z" fill="#3f53d9"/><path data-name="Path 7175" d="M270.132 130.092a.308.308 0 0 1-.055-.005l-13.638-2.422a.314.314 0 0 1-.255-.363c.36-2.074 8.883-50.566 18.825-50.566h.146a.314.314 0 0 1 .3.344l-5.008 52.724a.315.315 0 0 1-.313.285zm-13.273-2.991 12.992 2.307 4.942-52.034c-3.777.3-8.043 8.83-12.362 24.733-3.094 11.397-5.208 22.973-5.572 24.997z"/></g></g></g><g data-name="Group 3048"><g data-name="Group 3045"><g data-name="Group 3044"><path data-name="Path 7176" d="M195.312 157.698s-20.5 45.484-21.744 46.72c-.815.81-5.808 4.56-9.157 7.051a1.712 1.712 0 0 0 .677 3.051l46.942 9.714 11.943-53.4z" fill="#fff"/><path data-name="Path 7177" d="M212.031 224.549a.328.328 0 0 1-.064-.006l-46.942-9.714a2.027 2.027 0 0 1-.8-3.611c5.277-3.927 8.517-6.42 9.122-7.021.921-.96 13.469-28.41 21.679-46.626a.315.315 0 0 1 .419-.156l28.661 13.137a.315.315 0 0 1 .176.355l-11.943 53.4a.315.315 0 0 1-.308.242zm-16.562-66.432c-2.634 5.842-20.451 45.306-21.679 46.525-.8.8-5.441 4.29-9.191 7.08a1.4 1.4 0 0 0 .552 2.49l46.639 9.651 11.82-52.847z"/></g><path data-name="Path 7178" d="M212.688 214.65a.315.315 0 0 1-.085-.011l-34.847-9.692a.315.315 0 1 1 .168-.606l34.847 9.692a.315.315 0 0 1-.084.618z"/></g><g data-name="Group 3047"><g data-name="Group 3046"><path data-name="Path 7179" d="m255.066 206-6.151 36.724a6.705 6.705 0 0 1-6.613 5.6h-45.218a1.717 1.717 0 0 1-1.217-2.928l10.513-10.566 8.884-44.763z" fill="#fff"/><path data-name="Path 7180" d="M242.302 248.636h-45.214a2.032 2.032 0 0 1-1.44-3.464l10.446-10.5 8.865-44.669a.315.315 0 0 1 .426-.231l39.8 15.935a.315.315 0 0 1 .193.344l-6.152 36.725a7 7 0 0 1-6.924 5.86zm-26.8-58.139-8.81 44.391a.313.313 0 0 1-.085.161l-10.513 10.566a1.4 1.4 0 0 0 .994 2.392h45.214a6.371 6.371 0 0 0 6.3-5.334l6.11-36.475z"/></g><path data-name="Path 7181" d="M247.853 238.965a223.877 223.877 0 0 1-37.843-3.7.315.315 0 0 1 .114-.619 223.255 223.255 0 0 0 37.736 3.692.315.315 0 0 1 0 .629z"/></g><path data-name="Path 7182" d="M331.101 141.897s10.039 25.158-11.991 32.213-58.124-2.294-58.124-2.294l-6.075 37.951-81.507-22.03s20.3-33.114 35.509-54.816a33.606 33.606 0 0 1 35.424-13.375c29.814 7.216 82.314 20.09 86.764 22.351z" fill="#050038"/><path data-name="Path 7183" d="M204.692 196.506a.3.3 0 0 1-.069-.008.315.315 0 0 1-.238-.376c.029-.127 2.909-12.864 7.515-26.274 6.2-18.065 12.417-28.686 18.47-31.569 6.544-3.118 14.837-2.046 24.648 3.187 9.8 5.224 18.594 13.334 22.966 17.7 12.255 12.245 18.31 15.9 18.37 15.933a.315.315 0 1 1-.321.542c-.06-.036-6.17-3.714-18.494-16.03-6.853-6.848-30.488-28.584-46.9-20.767-14.1 6.717-25.528 56.907-25.641 57.414a.315.315 0 0 1-.306.248z" fill="#3c3c3c"/></g><g data-name="Group 3051"><g data-name="Group 3049"><path data-name="Path 7184" d="m296.427 60.003 5.387 14.245s-3.66 4.828-11.868 5.928-1.224-5.768-1.224-5.768l-3.965-11.346z" fill="#fee6c2"/><path data-name="Path 7185" d="M288.36 80.611c-1.386 0-2.232-.343-2.572-1.037-.8-1.643 1.851-4.513 2.572-5.247l-3.9-11.16a.316.316 0 0 1 .218-.408l11.67-3.059a.316.316 0 0 1 .375.193l5.387 14.245a.314.314 0 0 1-.044.3c-.153.2-3.833 4.945-12.077 6.049a12.388 12.388 0 0 1-1.629.124zm-3.193-17.33 3.855 11.023a.316.316 0 0 1-.077.328c-1.271 1.251-3.1 3.623-2.589 4.664.313.64 1.541.836 3.55.567 7.229-.968 10.9-4.9 11.552-5.674l-5.223-13.81z"/></g><g data-name="Group 3050"><path data-name="Path 7186" d="M295.152 59.28s-4.041 8.486-10.846 7.73-7.443-14.727-7.1-17.659a14.262 14.262 0 0 0 11.527-3.508c2.682-2.291 7.119 4.919 6.419 13.437z" fill="#fee6c2"/><path data-name="Path 7187" d="M285.176 67.373a8.178 8.178 0 0 1-.9-.05 5.725 5.725 0 0 1-3.888-2.307c-3.475-4.362-3.737-13.608-3.495-15.7a.312.312 0 0 1 .129-.22.321.321 0 0 1 .25-.052 14.083 14.083 0 0 0 11.256-3.44 2.03 2.03 0 0 1 2.368-.227c2.6 1.329 5.112 7.377 4.574 13.93a.31.31 0 0 1-.03.109c-.165.338-3.872 7.957-10.264 7.957zm-7.692-17.654c-.175 2.541.2 10.893 3.392 14.9a5.117 5.117 0 0 0 3.465 2.074c6.237.694 10.157-6.812 10.5-7.5.5-6.281-1.829-12.024-4.239-13.258a1.4 1.4 0 0 0-1.673.146 14.67 14.67 0 0 1-11.445 3.638zm17.669 9.56z"/></g><path data-name="Path 7188" d="M284.344 42.818c14.379-.95 20.8 18.579 22.933 27.269h-10.778a22.716 22.716 0 0 1-.9-5.617c-.489-8.656-5.659-3.5-12.678-19.331-1.977-4.469 1.423-2.321 1.423-2.321z"/></g><g data-name="Group 3058"><g data-name="Group 3052"><path data-name="Path 7189" d="M296.427 111.626c11.324 4.2 27.467 14.3 27.467 14.3s-14.9-40.483-11.215-50.359c0 0 19.522 5.861 28.552 35.044 7.44 24.046-.4 35.01-8.729 38.221a15.508 15.508 0 0 1-5.266 1.048c-7.245.13-22.771-14.336-31.5-21.333-2.783-2.23-4.875-3.7-5.789-3.7l-13.132-3.219s8.288-14.204 19.612-10.002z" fill="#fee6c2"/><path data-name="Path 7190" d="M334.584 148.165a.315.315 0 0 1-.154-.589c4.591-2.566 14.415-11.295 6.5-36.875-4.636-14.984-12.1-23.657-17.536-28.295a35.49 35.49 0 0 0-10.519-6.445c-3.226 10.136 11.167 49.452 11.314 49.852a.314.314 0 0 1-.462.375c-.161-.1-16.245-10.124-27.409-14.267-9.944-3.689-17.617 7.337-19.007 9.5l12.676 3.107c.92.029 2.652 1.129 5.945 3.768a.315.315 0 0 1-.393.491c-1.945-1.559-4.64-3.63-5.589-3.63a.316.316 0 0 1-.075-.009l-13.132-3.218a.314.314 0 0 1-.2-.464c.084-.144 8.552-14.382 19.994-10.136 9.818 3.643 23.4 11.795 26.752 13.848-2.182-6.04-14.339-40.534-10.9-49.726a.314.314 0 0 1 .385-.191c.2.06 5.013 1.543 11 6.64 5.514 4.692 13.072 13.465 17.758 28.612 8.052 26.02-2.069 34.971-6.793 37.611a.317.317 0 0 1-.155.041z"/><path data-name="Path 7191" d="M286.994 123.12a.316.316 0 0 1-.3-.418 8.9 8.9 0 0 1 4.748-5.141.315.315 0 0 1 .253.576 8.263 8.263 0 0 0-4.407 4.772.315.315 0 0 1-.294.211z"/><path data-name="Path 7192" d="M282.866 122.291a.322.322 0 0 1-.09-.013.315.315 0 0 1-.211-.392 10.331 10.331 0 0 1 5.423-6.3.315.315 0 0 1 .268.57 9.69 9.69 0 0 0-5.088 5.909.315.315 0 0 1-.302.226z"/></g><g data-name="Group 3057"><g data-name="Group 3054"><g data-name="Group 3053"><path data-name="Path 7193" d="M265.374 138.986h33.7a2.787 2.787 0 0 0 2.631-3.709l-13.842-39.465a2.788 2.788 0 0 0-2.631-1.865h-33.7a2.787 2.787 0 0 0-2.631 3.709l13.842 39.464a2.788 2.788 0 0 0 2.631 1.866z" fill="#abb2e7"/></g></g><g data-name="Group 3056"><g data-name="Group 3055"><path data-name="Path 7194" d="M259.605 127.708s-7.542-.092-11.887-10.553-1.3-13.2 1.265-15.915 5.3-3.5 5.569-1.6c0 0 4.166-1.422 3.114 3.605 0 0 3.111.619.993 4.9 0 0 2.946 2.275-3.115 8.246z" fill="#fee6c2"/><path data-name="Path 7195" d="M259.605 128.023c-.078 0-7.8-.217-12.174-10.747-4.294-10.338-1.43-13.351 1.1-16.009l.23-.243c1.871-1.978 3.943-3.048 5.154-2.661a1.333 1.333 0 0 1 .875.885 3 3 0 0 1 2.6.434c.716.632.932 1.756.648 3.343a2.561 2.561 0 0 1 1.408 1.247c.472.959.339 2.24-.4 3.809a2.753 2.753 0 0 1 .644 1.676c.111 1.845-1.158 4.1-3.775 6.717l3.993 11.127a.315.315 0 0 1-.3.421zm-6.239-29.109c-.921 0-2.512.808-4.153 2.543l-.231.243c-2.512 2.642-5.109 5.375-.972 15.334 3.6 8.662 9.449 10.083 11.134 10.315l-3.894-10.85a.314.314 0 0 1 .075-.33c3.192-3.145 3.792-5.186 3.733-6.345a1.969 1.969 0 0 0-.592-1.43.318.318 0 0 1-.088-.387c.72-1.457.891-2.652.5-3.456a1.972 1.972 0 0 0-1.268-1 .314.314 0 0 1-.247-.373c.313-1.5.181-2.516-.394-3.024-.812-.719-2.3-.224-2.311-.219a.315.315 0 0 1-.413-.254.779.779 0 0 0-.525-.718 1.157 1.157 0 0 0-.354-.049z"/></g><path data-name="Path 7196" d="M251.012 114.914a.315.315 0 0 1-.245-.511 78.915 78.915 0 0 1 5.026-5.693 4.464 4.464 0 0 1 1.13-.92 1.763 1.763 0 0 1 1.6-.062.315.315 0 1 1-.291.558 1.153 1.153 0 0 0-1.021.064 3.84 3.84 0 0 0-.965.8 77.654 77.654 0 0 0-4.986 5.647.314.314 0 0 1-.248.117z"/><path data-name="Path 7197" d="M249.319 111.007a.315.315 0 0 1-.236-.522l5.28-6.016a6.146 6.146 0 0 1 1.337-1.245 2.286 2.286 0 0 1 1.93-.3.316.316 0 1 1-.2.6 1.689 1.689 0 0 0-1.394.242 5.694 5.694 0 0 0-1.2 1.125l-5.28 6.015a.314.314 0 0 1-.237.101z"/><path data-name="Path 7198" d="M247.002 107.821a.314.314 0 0 1-.259-.493 33.762 33.762 0 0 1 7.678-7.956.315.315 0 0 1 .375.505 33.135 33.135 0 0 0-7.535 7.808.315.315 0 0 1-.259.136z"/></g></g></g></g><path data-name="Path 7199" d="M387.686 248.636h-273.6a.315.315 0 1 1 0-.629h273.283v-77.036h-17.693a.315.315 0 1 1 0-.629h18.007a.315.315 0 0 1 .314.315v77.666a.315.315 0 0 1-.311.313z"/></svg>