<svg xmlns="http://www.w3.org/2000/svg" width="383.5" height="254.991"><g data-name="Sitemap creation"><g data-name="Group 2963"><g data-name="Group 2957" transform="translate(37.206)"><rect data-name="Rectangle 4238" width="313.584" height="239.476" rx="22.204" transform="translate(.318 .318)" fill="#fff"/><path data-name="Path 7067" d="M307.123 240.112H7.097a7.123 7.123 0 0 1-7.1-7.132V7.133A7.123 7.123 0 0 1 7.097 0h300.027a7.122 7.122 0 0 1 7.1 7.133v225.846a7.122 7.122 0 0 1-7.101 7.133zM7.097.617A6.508 6.508 0 0 0 .612 7.135v225.844a6.509 6.509 0 0 0 6.485 6.518h300.027a6.509 6.509 0 0 0 6.485-6.518V7.133a6.508 6.508 0 0 0-6.485-6.518z"/></g><g data-name="Group 2961"><g data-name="Group 2958" transform="translate(45.323 8.648)"><ellipse data-name="Ellipse 514" cx="5.146" cy="5.142" rx="5.146" ry="5.142" transform="translate(.318 .318)" fill="#fff"/><path data-name="Path 7068" d="M5.464 10.919a5.46 5.46 0 1 1 5.464-5.46 5.468 5.468 0 0 1-5.464 5.46zm0-10.283a4.823 4.823 0 1 0 4.828 4.823A4.831 4.831 0 0 0 5.464.632z"/></g><g data-name="Group 2959" transform="translate(60.341 8.648)"><ellipse data-name="Ellipse 515" cx="5.146" cy="5.142" rx="5.146" ry="5.142" transform="translate(.318 .318)" fill="#fff"/><path data-name="Path 7069" d="M5.464 10.919a5.46 5.46 0 1 1 5.464-5.46 5.468 5.468 0 0 1-5.464 5.46zm0-10.283a4.823 4.823 0 1 0 4.828 4.823A4.831 4.831 0 0 0 5.464.632z"/></g><g data-name="Group 2960" transform="translate(75.358 8.648)"><ellipse data-name="Ellipse 516" cx="5.146" cy="5.142" rx="5.146" ry="5.142" transform="translate(.318 .318)" fill="#fff"/><path data-name="Path 7070" d="M5.464 10.919a5.46 5.46 0 1 1 5.464-5.46 5.468 5.468 0 0 1-5.464 5.46zm0-10.283a4.823 4.823 0 1 0 4.828 4.823A4.831 4.831 0 0 0 5.464.632z"/></g></g><g data-name="Group 2962"><path data-name="Path 7071" d="M301.128 16.898H125.382a3.255 3.255 0 0 1 0-6.51h175.746a3.255 3.255 0 1 1 0 6.51z" fill="#fff"/><path data-name="Path 7072" d="M301.128 17.217H125.386a3.574 3.574 0 0 1 0-7.147h175.746a3.574 3.574 0 1 1 0 7.147zm-175.746-6.51a2.937 2.937 0 1 0 0 5.874h175.746a2.937 2.937 0 1 0 0-5.874z"/></g><path data-name="Path 7073" d="M345.554 232.223H43.078a.305.305 0 0 1-.306-.306V27.265a.305.305 0 0 1 .306-.306h302.476a.306.306 0 0 1 .306.306v204.653a.306.306 0 0 1-.306.305zm-302.17-.611h301.865V27.57H43.384z"/></g><g data-name="Group 2967"><g data-name="Group 2964"><path data-name="Rectangle 4239" fill="#fff" d="m.328 67.209 97.717-16.87 11.132 64.477-97.718 16.87z"/><path data-name="Path 7074" d="M11.468 132.003a.318.318 0 0 1-.313-.264L.005 67.265a.318.318 0 0 1 .259-.368l97.718-16.87a.318.318 0 0 1 .368.259l11.151 64.474a.318.318 0 0 1-.26.368l-97.718 16.87a.319.319 0 0 1-.055.005zM.686 67.474l11.042 63.847 97.091-16.762-11.042-63.847z"/></g><g data-name="Group 2965"><path data-name="Rectangle 4240" fill="#fff" d="M.323 67.21 98.04 50.34l5.974 34.601-97.717 16.87z"/><path data-name="Path 7075" d="M6.302 102.128a.318.318 0 0 1-.313-.264l-5.984-34.6a.318.318 0 0 1 .259-.368l97.718-16.87a.318.318 0 0 1 .368.259l5.984 34.6a.317.317 0 0 1-.259.368l-97.717 16.87a.308.308 0 0 1-.056.005zM.686 67.474l5.875 33.972 97.09-16.761-5.875-33.973z"/></g><path data-name="Path 7076" d="M11.468 132.002a.318.318 0 0 1-.313-.264L.005 67.264a.318.318 0 0 1 .259-.367l49.3-8.512a.319.319 0 0 1 .368.259l11.15 64.474a.318.318 0 0 1-.259.367l-49.3 8.512a.319.319 0 0 1-.055.005zM.686 67.469l11.042 63.847 48.675-8.4-11.042-63.847z"/><g data-name="Group 2966"><path data-name="Rectangle 4241" fill="#fff" d="m.319 67.211 97.717-16.87 1.017 5.887-97.718 16.87z"/><path data-name="Path 7077" d="M1.336 73.415a.318.318 0 0 1-.313-.264L.005 67.265a.318.318 0 0 1 .259-.368l97.718-16.87a.318.318 0 0 1 .368.259l1.018 5.886a.318.318 0 0 1-.259.368L1.391 73.41a.318.318 0 0 1-.055.005zm-.65-5.945.91 5.259 97.09-16.762-.909-5.259z"/></g></g><g data-name="Group 2980"><path data-name="Rectangle 4242" fill="#abb2e7" d="M214.76 39.741h54.542v40.554H214.76z"/><g data-name="Group 2969"><path data-name="Path 7078" d="M188.114 118.632a.318.318 0 0 1-.318-.318V88.488a.318.318 0 0 1 .318-.318h107.834a.318.318 0 0 1 .318.318v28.242a.318.318 0 0 1-.636 0V88.806H188.437v29.507a.318.318 0 0 1-.323.319z"/><g data-name="Group 2968"><path data-name="Path 7079" d="M241.703 80.294z" fill="#fff"/><path data-name="Path 7080" d="M241.703 88.533a.318.318 0 0 1-.318-.318v-7.921a.318.318 0 1 1 .636 0v7.921a.318.318 0 0 1-.318.318z"/></g></g><g data-name="Group 2970"><path data-name="Rectangle 4243" fill="#fff" d="M161.227 97.117h54.542v40.554h-54.542z"/><path data-name="Path 7081" d="M215.77 137.989h-54.542a.318.318 0 0 1-.318-.318V97.117a.318.318 0 0 1 .318-.318h54.542a.318.318 0 0 1 .318.318v40.553a.318.318 0 0 1-.318.319zm-54.224-.636h53.906V97.435h-53.906z"/></g><path data-name="Rectangle 4244" fill="#abb2e7" d="M268.293 97.117h54.542v40.554h-54.542z"/><g data-name="Group 2974"><g data-name="Group 2972"><path data-name="Path 7082" d="M125.821 176.981a.318.318 0 0 1-.318-.318v-29.826a.318.318 0 0 1 .318-.318h83.5a.318.318 0 0 1 .318.318v28.241a.318.318 0 1 1-.636 0v-27.923h-82.865v29.507a.318.318 0 0 1-.317.319z"/><g data-name="Group 2971"><path data-name="Path 7083" d="M193.037 138.643z" fill="#fff"/><path data-name="Path 7084" d="M193.037 146.882a.318.318 0 0 1-.318-.318v-7.921a.318.318 0 1 1 .636 0v7.921a.318.318 0 0 1-.318.318z"/></g></g><path data-name="Rectangle 4245" fill="#abb2e7" d="M98.934 155.466h54.542v40.554H98.934z"/><g data-name="Group 2973"><path data-name="Rectangle 4246" fill="#fff" d="M181.667 155.466h54.542v40.554h-54.542z"/><path data-name="Path 7085" d="M236.209 196.338h-54.541a.318.318 0 0 1-.318-.318v-40.554a.318.318 0 0 1 .318-.318h54.541a.317.317 0 0 1 .318.318v40.553a.318.318 0 0 1-.318.319zm-54.223-.636h53.905v-39.918h-53.905z"/></g></g><g data-name="Group 2979"><g data-name="Group 2976"><path data-name="Path 7086" d="M355.322 176.981a.318.318 0 0 1-.318-.318v-29.508h-78v27.923a.318.318 0 0 1-.636 0v-28.241a.318.318 0 0 1 .318-.318h78.635a.318.318 0 0 1 .318.318v29.826a.318.318 0 0 1-.317.318z"/><g data-name="Group 2975"><path data-name="Path 7087" d="M292.973 138.643z" fill="#fff"/><path data-name="Path 7088" d="M292.973 146.882a.318.318 0 0 1-.318-.318v-7.921a.318.318 0 0 1 .636 0v7.921a.318.318 0 0 1-.318.318z"/></g></g><g data-name="Group 2977"><path data-name="Rectangle 4247" fill="#fff" d="M383.182 196.02H328.64v-40.554h54.542z"/><path data-name="Path 7089" d="M383.182 196.338H328.64a.318.318 0 0 1-.318-.318v-40.554a.318.318 0 0 1 .318-.318h54.542a.318.318 0 0 1 .318.318v40.553a.318.318 0 0 1-.318.319zm-54.224-.636h53.906v-39.918h-53.906z"/></g><g data-name="Group 2978"><path data-name="Rectangle 4248" fill="#fff" d="M304.342 196.02H249.8v-40.554h54.542z"/><path data-name="Path 7090" d="M304.342 196.338H249.8a.318.318 0 0 1-.318-.318v-40.554a.318.318 0 0 1 .318-.318h54.542a.318.318 0 0 1 .319.318v40.553a.318.318 0 0 1-.319.319zm-54.223-.636h53.906v-39.918h-53.907z"/></g></g></g><g data-name="Group 2988"><g data-name="Group 2981"><path data-name="Rectangle 4249" fill="#fff" d="m145.552 52.604 82.026 55.678-36.757 54.151-82.026-55.678z"/><path data-name="Path 7091" d="M190.8 162.737a.316.316 0 0 1-.179-.055l-82.026-55.678a.319.319 0 0 1-.085-.442l36.8-54.121a.318.318 0 0 1 .441-.084l82.027 55.678a.317.317 0 0 1 .084.442l-36.8 54.121a.318.318 0 0 1-.262.139zm-81.584-56.081 81.5 55.321 36.443-53.595-81.5-55.321z"/></g><g data-name="Group 2982"><path data-name="Rectangle 4250" fill="#fff" d="m145.552 52.604 40.906 27.798-36.782 54.126-40.906-27.799z"/><path data-name="Path 7092" d="M149.698 134.837a.315.315 0 0 1-.178-.055l-40.925-27.779a.319.319 0 0 1-.085-.442l36.8-54.121a.318.318 0 0 1 .441-.084l40.926 27.779a.317.317 0 0 1 .084.442l-36.8 54.12a.318.318 0 0 1-.263.14zm-40.483-28.182 40.4 27.422 36.442-53.594-40.4-27.422z"/></g><g data-name="Group 2983"><path data-name="Rectangle 4251" fill="#fff" d="m121.571 87.902 27.3 18.553-12.798 18.834-27.301-18.553z"/><path data-name="Path 7093" d="M136.087 125.598a.316.316 0 0 1-.178-.055l-27.314-18.54a.319.319 0 0 1-.085-.442l12.806-18.833a.319.319 0 0 1 .442-.084l27.313 18.54a.318.318 0 0 1 .084.442l-12.801 18.833a.319.319 0 0 1-.267.139zm-26.871-18.942 26.788 18.182 12.45-18.306-26.787-18.183z"/></g><g data-name="Group 2984"><path data-name="Rectangle 4252" fill="#fff" d="m148.917 106.464 27.3 18.553-12.798 18.834-27.301-18.553z"/><path data-name="Path 7094" d="M163.437 144.159a.315.315 0 0 1-.178-.055l-27.313-18.54a.313.313 0 0 1-.134-.2.317.317 0 0 1 .049-.239l12.806-18.832a.318.318 0 0 1 .441-.084l27.314 18.54a.317.317 0 0 1 .084.442l-12.805 18.833a.318.318 0 0 1-.264.135zm-26.871-18.943 26.787 18.183 12.448-18.307-26.788-18.182z"/></g><g data-name="Group 2985"><path data-name="Rectangle 4253" fill="#fff" d="m176.262 125.026 27.3 18.553-12.798 18.834-27.301-18.553z"/><path data-name="Path 7095" d="M190.778 162.722a.315.315 0 0 1-.178-.055l-27.313-18.54a.321.321 0 0 1-.134-.2.317.317 0 0 1 .05-.239l12.805-18.833a.319.319 0 0 1 .442-.084l27.314 18.54a.317.317 0 0 1 .084.442l-12.806 18.832a.317.317 0 0 1-.264.137zm-26.871-18.942 26.787 18.183 12.447-18.306-26.787-18.183z"/></g><g data-name="Group 2986"><path data-name="Rectangle 4254" fill="#fff" d="m145.572 52.618 82.026 55.678-3.355 4.944-82.027-55.678z"/><path data-name="Path 7096" d="M224.241 113.556a.314.314 0 0 1-.179-.055l-82.027-55.678a.319.319 0 0 1-.085-.442l3.36-4.941a.319.319 0 0 1 .442-.084l82.027 55.678a.317.317 0 0 1 .084.442l-3.36 4.941a.318.318 0 0 1-.262.139zm-81.584-56.08 81.5 55.321 3-4.415-81.5-55.321z"/></g><g data-name="Group 2987"><path data-name="Rectangle 4255" fill="#fff" d="m127.562 79.102 81.987 55.716-5.922 8.714-81.987-55.716z"/><path data-name="Path 7097" d="M203.666 143.814a.315.315 0 0 1-.178-.055l-82.027-55.678a.318.318 0 0 1-.084-.442l5.925-8.714a.318.318 0 0 1 .442-.084l82.026 55.678a.319.319 0 0 1 .085.442l-5.925 8.713a.319.319 0 0 1-.264.14zm-81.584-56.081 81.5 55.321 5.567-8.187-81.5-55.321z"/></g></g><g data-name="Group 2999"><g data-name="Group 2992"><path data-name="Path 7098" d="m89.304 167.486 12.35 87.186h-41.66l-4.975-16.464-4.353 16.464H7.657s9.606-44.111 20.355-65.856 24.472-28.372 24.472-28.372z" fill="#fff"/><g data-name="Group 2989"><path data-name="Path 7099" d="M7.656 254.672s9.606-44.111 20.355-65.856 24.472-28.372 24.472-28.372l36.822 7.041 12.35 87.186z" fill="#050038"/><path data-name="Path 7100" d="M7.657 254.99a.313.313 0 0 1-.068-.007.318.318 0 0 1-.243-.378c.1-.442 9.737-44.4 20.38-65.929 10.674-21.593 24.48-28.45 24.619-28.517a.319.319 0 0 1 .2-.026l36.822 7.041a.319.319 0 0 1 .255.268l12.35 87.186a.318.318 0 1 1-.63.089l-12.318-86.961-36.492-6.978c-1.212.63-14.119 7.719-24.234 28.18C17.689 210.42 8.064 254.3 7.969 254.74a.318.318 0 0 1-.312.25z"/></g><g data-name="Group 2990"><path data-name="Path 7101" d="m59.992 254.672-4.974-16.464-4.353 16.464z" fill="#fff"/><path data-name="Path 7102" d="M59.993 254.99a.318.318 0 0 1-.3-.226l-4.649-15.389-4.066 15.378a.318.318 0 0 1-.615-.163l4.353-16.464a.317.317 0 0 1 .3-.237.324.324 0 0 1 .31.226l4.974 16.464a.317.317 0 0 1-.3.41z"/></g><g data-name="Group 2991"><path data-name="Path 7103" d="m55.018 238.208-5.907-24.851s-4.353-8.387-4.664-10.251z" fill="#3c3c3c"/><path data-name="Path 7104" d="M55.017 238.527a.318.318 0 0 1-.309-.245l-5.9-24.813c-.348-.671-4.369-8.461-4.677-10.31a.318.318 0 0 1 .628-.1c.3 1.794 4.589 10.074 4.633 10.157a.323.323 0 0 1 .027.073l5.907 24.851a.318.318 0 0 1-.236.383.309.309 0 0 1-.073.004z" fill="#67666e"/></g></g><g data-name="Group 2996"><g data-name="Group 2993" fill="#3f53d9"><path data-name="Path 7105" d="M44.137 128.242c.654-2.117 5.934-8.781 7.254-10.562 3.04-4.1 15.152-2.4 20.226-2.961 6.375-.709 19.363-2.941 27.758 2.133 8.216 4.965 11.276 15.145 15.2 20.558 3.866-2.7 6.975-5.078 11.017-8.081l13.524 14.859c-.725.88-14.768 21.538-27.516 20.088-7.42-.844-9.638-4.97-14.406-9.94 0 0-.1 20.709-6.737 18.638-27.352-8.54-42.278 5.623-54.3 1.481-2.907-1.003 6.119-40.195 7.98-46.213z"/><path data-name="Path 7106" d="M97.095 154.447a.318.318 0 0 1-.273-.153 95.633 95.633 0 0 1-7.49-15.593.318.318 0 0 1 .6-.208 94.846 94.846 0 0 0 7.433 15.471.318.318 0 0 1-.271.483z"/></g><g data-name="Group 2995"><g data-name="Group 2994"><path data-name="Path 7107" d="M138.879 144.315c2.263-4.807 11.179-15.047 15.409-16.878 7.11-3.079 2.254-4.318 2.254-4.318s3.186-.941 2.808-2.693c-.445-2.063-6.522.391-8.5 1-.533.177-.866.28-.866.28s.335-.117.866-.28c2.172-.722 7.852-2.853 7.987-4.347.169-1.86-2.392-1.632-2.392-1.632a1.4 1.4 0 0 0 .406-2.223c-1.006-1.253-14.045-.086-23.113 8.011-1.288 1.15-7.637 7.748-8.648 8.738z" fill="#fee6c2"/><path data-name="Path 7108" d="M138.878 144.634a.314.314 0 0 1-.135-.031.318.318 0 0 1-.152-.423c2.347-4.987 11.264-15.17 15.57-17.035 3.4-1.471 3.706-2.385 3.68-2.71-.043-.544-1.034-.919-1.378-1.008a.318.318 0 0 1-.011-.613c.029-.009 2.894-.9 2.587-2.321a.549.549 0 0 0-.288-.382c-1.138-.644-4.74.582-6.676 1.24-.446.152-.833.284-1.128.374-.53.176-.866.28-.866.28a.318.318 0 0 1-.2-.6s.34-.119.879-.284c3.692-1.229 7.673-3.075 7.763-4.072a.981.981 0 0 0-.254-.832 2.62 2.62 0 0 0-1.793-.455.313.313 0 0 1-.333-.225.318.318 0 0 1 .152-.371 1.381 1.381 0 0 0 .635-.8 1.177 1.177 0 0 0-.324-.949c-.007-.008-.171-.2-1.11-.279-3.9-.321-14.218 1.787-21.544 8.327-.842.751-3.912 3.9-6.154 6.2-1.194 1.224-2.137 2.191-2.483 2.531a.318.318 0 1 1-.446-.454c.342-.335 1.33-1.348 2.474-2.521 2.249-2.305 5.327-5.462 6.185-6.228 7.909-7.061 18.432-8.788 22.02-8.487a2.265 2.265 0 0 1 1.553.514 1.772 1.772 0 0 1 .452 1.475 1.612 1.612 0 0 1-.3.653 2.512 2.512 0 0 1 1.467.615 1.6 1.6 0 0 1 .438 1.34c-.068.751-1.17 1.567-2.571 2.31a3.994 3.994 0 0 1 2.477.144 1.191 1.191 0 0 1 .6.8c.3 1.411-1.229 2.327-2.228 2.765a1.7 1.7 0 0 1 1.042 1.261c.082 1.032-1.246 2.126-4.061 3.345-4.089 1.771-12.974 11.892-15.248 16.721a.317.317 0 0 1-.291.185z"/></g><path data-name="Path 7109" d="M151.04 125.409a.318.318 0 0 1-.154-.6c.143-.079 3.481-1.908 5.235-1.908h.072a.318.318 0 0 1-.02.636c-1.564-.037-4.947 1.809-4.981 1.828a.316.316 0 0 1-.152.044z"/><path data-name="Path 7110" d="M147.757 118.607a.318.318 0 0 1-.144-.6 34.39 34.39 0 0 1 8.224-2.676.318.318 0 0 1 .128.623 33.723 33.723 0 0 0-8.063 2.62.321.321 0 0 1-.145.033z"/></g></g><g data-name="Group 2998" fill="#050038"><g data-name="Group 2997"><path data-name="Path 7111" d="M91.213 82.176s8.835 13.208 3.57 19.553-17.495-.155-17.495-.155 6.281-22.437 13.925-19.398z"/><path data-name="Path 7112" d="M88.012 104.848c-5.157 0-10.54-2.814-10.877-2.993a.318.318 0 0 1-.157-.366c.187-.668 4.645-16.383 10.757-19.408a4.258 4.258 0 0 1 3.591-.2.314.314 0 0 1 .146.119c.366.547 8.906 13.479 3.551 19.933a8.685 8.685 0 0 1-7.011 2.915zm-10.349-3.439c1.689.836 12.22 5.721 16.871.116 4.842-5.835-2.806-17.964-3.536-19.09a3.6 3.6 0 0 0-2.981.215c-5.449 2.699-9.745 16.705-10.349 18.759z"/></g><path data-name="Path 7113" d="M49.635 152.707a21.54 21.54 0 0 0 10.955 3.454 26.918 26.918 0 0 0 13.13-3 21.379 21.379 0 0 0 8.254-6.966 13.357 13.357 0 0 0 2.036-4.8 15.445 15.445 0 0 0-.257-6.4c-.494-2.19-1.3-4.289-1.884-6.453a11.9 11.9 0 0 1-.377-6.008c.959-3.72 4.856-5.53 6.529-8.842 1.75-3.463.893-7.558-.374-11.026a49.281 49.281 0 0 1-2.181-5.792 5.614 5.614 0 0 1 1.151-5.085 15.652 15.652 0 0 1 3.673-2.81 20.108 20.108 0 0 0 3.769-2.779c2.659-2.7 2.912-6.881 1.751-10.327a6.7 6.7 0 0 0-3.371-4.166 8.228 8.228 0 0 0-4.948-.371 28.36 28.36 0 0 0-5.322 1.742c-1.592.64-3.178 1.294-4.763 1.95-.39-.06-.781-.115-1.174-.156a16.067 16.067 0 0 0-6.281.469 12.449 12.449 0 0 0-5.194 3.187 27.487 27.487 0 0 0-6.137 10.521 33.622 33.622 0 0 0-1.455 6 53.079 53.079 0 0 0-.426 6.121 35.055 35.055 0 0 1-.568 6.185 13.937 13.937 0 0 1-2.388 5.4 37.432 37.432 0 0 1-4.053 4.4 36.637 36.637 0 0 0-3.908 4.39 25.318 25.318 0 0 0-4.569 10.637c-1.31 7.77 1.696 16.096 8.382 20.525z"/></g></g><g data-name="Group 3001"><g data-name="Group 3000" transform="translate(223.278 206.022)" fill="#e9ecff"><ellipse data-name="Ellipse 517" cx="4.966" cy="4.971" rx="4.966" ry="4.971"/><ellipse data-name="Ellipse 518" cx="4.966" cy="4.971" rx="4.966" ry="4.971" transform="translate(14.492)"/><ellipse data-name="Ellipse 519" cx="4.966" cy="4.971" rx="4.966" ry="4.971" transform="translate(28.983)"/></g><path data-name="Path 7114" d="M296.793 211.311h-29.41a.318.318 0 0 1 0-.636h29.087v-33.26a.318.318 0 0 1 .636 0v33.578a.318.318 0 0 1-.313.318z"/></g><g data-name="Group 3003"><g data-name="Group 3002" transform="translate(161.486 46.195)" fill="#e2eaff"><ellipse data-name="Ellipse 520" cx="4.966" cy="4.971" rx="4.966" ry="4.971"/><ellipse data-name="Ellipse 521" cx="4.966" cy="4.971" rx="4.966" ry="4.971" transform="translate(14.492)"/><ellipse data-name="Ellipse 522" cx="4.966" cy="4.971" rx="4.966" ry="4.971" transform="translate(28.983)"/></g><path data-name="Path 7115" d="M235.002 51.483h-29.41a.318.318 0 1 1 0-.636h29.41a.318.318 0 0 1 0 .636z"/></g></g></svg>